<svg xmlns="http://www.w3.org/2000/svg" x="0px" y="0px"
width="24" height="24"
viewBox="0 0 172 172"
style=" fill:#000000;"><g fill="none" fill-rule="nonzero" stroke="none" stroke-width="1" stroke-linecap="butt" stroke-linejoin="miter" stroke-miterlimit="10" stroke-dasharray="" stroke-dashoffset="0" font-family="none" font-weight="none" font-size="none" text-anchor="none" style="mix-blend-mode: normal"><path d="M0,172v-172h172v172z" fill="none"></path><g fill="#4272f2"><path d="M28.165,5.4825l-22.575,58.91h10.6425l5.4825,-15.5875h23.5425l5.59,15.5875h11.0725l-22.79,-58.91zM33.4325,15.5875h0.3225l8.815,25.37h-18.06zM137.2775,27.4125c-0.14781,0.02688 -0.29562,0.06719 -0.43,0.1075c-1.59906,0.36281 -2.72781,1.80063 -2.6875,3.44v101.5875l-24.725,-24.725c-0.645,-0.68531 -1.53187,-1.06156 -2.4725,-1.075c-1.3975,0.01344 -2.64719,0.86 -3.17125,2.16344c-0.51062,1.29 -0.20156,2.78156 0.80625,3.74906l30.53,30.6375l2.4725,2.365l2.4725,-2.365l30.53,-30.6375c1.02125,-0.83312 1.49156,-2.16344 1.19594,-3.45344c-0.29562,-1.27656 -1.30344,-2.28438 -2.58,-2.58c-1.29,-0.29563 -2.62031,0.17469 -3.45344,1.19594l-24.725,24.725v-101.5875c0.04031,-0.99437 -0.36281,-1.94844 -1.075,-2.62031c-0.72562,-0.68531 -1.70656,-1.02125 -2.6875,-0.92719zM12.255,104.5975v8.815h31.7125l-34.4,41.71v8.385h48.2675v-8.9225h-35.1525l34.4,-42.2475v-7.74z"></path></g></g></svg>